<svg version="1.1" id="Layer_1" xmlns="http://www.w3.org/2000/svg" xmlns:xlink="http://www.w3.org/1999/xlink" x="0px" y="0px"
	 width="100%" viewBox="0 0 1024 1024" enable-background="new 0 0 1024 1024" xml:space="preserve">
<path fill="#000000" opacity="1.000000" stroke="none" 
	d="
M629.996582,533.095337 
	C624.332092,533.079407 619.161682,533.197266 614.002075,533.012390 
	C608.699768,532.822632 605.541199,529.614258 604.926636,524.216797 
	C604.402222,519.610657 607.174805,515.167358 611.742371,513.910339 
	C617.784729,512.247437 624.016785,513.079407 630.150818,513.168091 
	C634.533325,513.231384 635.858887,511.717255 635.837524,507.352386 
	C635.646851,468.360016 635.568481,429.366302 635.721252,390.374023 
	C635.741638,385.163086 633.937317,383.590851 629.060974,383.993103 
	C625.254517,384.307159 621.400696,384.026245 617.568298,384.055206 
	C615.372620,384.071808 613.178894,383.861725 611.216003,382.931000 
	C607.387207,381.115509 604.392273,378.122864 604.532288,373.808716 
	C604.684021,369.131866 607.514893,365.073639 612.279663,364.623047 
	C624.355225,363.481049 636.566833,362.629883 648.517273,365.516388 
	C653.149597,366.635315 655.176575,370.846832 655.708618,375.402008 
	C656.054626,378.364502 655.890076,381.391052 655.890747,384.388885 
	C655.898865,421.215851 655.920654,458.042877 655.875549,494.869781 
	C655.864990,503.522339 655.879822,512.189148 655.401917,520.822754 
	C654.966370,528.691589 650.927673,532.469849 642.989136,533.005676 
	C638.841431,533.285522 634.661011,533.081665 629.996582,533.095337 
z"/>
<path fill="#000000" opacity="1.000000" stroke="none" 
	d="
M383.124115,467.000000 
	C383.124359,480.157990 383.121307,492.815948 383.127594,505.473938 
	C383.131348,513.040100 383.137939,513.040405 390.935089,513.062805 
	C394.932251,513.074341 398.935181,512.952026 402.925232,513.126038 
	C409.089691,513.394592 413.210938,517.571289 413.108978,523.193787 
	C412.997711,529.328918 409.063080,533.029724 402.467804,533.068787 
	C394.140472,533.118164 385.812347,533.129272 377.485077,533.075806 
	C367.961395,533.014648 362.991516,528.084045 362.975403,518.737427 
	C362.894135,471.604614 362.820099,424.471832 362.758423,377.339020 
	C362.749054,370.184906 367.699280,364.693878 375.729797,364.285522 
	C386.362823,363.744812 397.038422,364.031128 407.695831,363.991150 
	C409.037659,363.986115 410.374969,364.175812 411.259430,365.404083 
	C415.536682,371.344116 410.621338,383.077789 403.407349,383.719757 
	C398.943726,384.116974 394.422028,383.873291 389.926331,383.895935 
	C383.339325,383.929138 383.133881,384.092163 383.130524,390.551910 
	C383.117249,415.867950 383.124878,441.183960 383.124115,467.000000 
z"/>
<path fill="#000000" opacity="1.000000" stroke="none" 
	d="
M601.885132,417.143677 
	C608.691528,425.326996 615.329651,433.183685 621.821472,441.159485 
	C627.003235,447.525818 626.814819,450.882568 620.940857,456.712708 
	C612.885010,464.708344 606.659424,474.193115 599.419373,482.851532 
	C590.900208,493.039673 582.661194,503.461548 574.182373,513.683899 
	C569.416992,519.429260 565.479553,525.817444 559.969604,531.002075 
	C555.086060,535.597229 550.319458,536.228333 545.402588,532.130798 
	C539.770325,527.437134 539.040161,523.937012 543.685059,518.072388 
	C554.318726,504.646484 565.388794,491.567108 576.102112,478.203094 
	C583.069336,469.511963 590.193481,460.967560 597.675354,452.717682 
	C600.531494,449.568298 600.060669,446.983612 597.271179,443.614990 
	C587.219055,431.475677 576.841187,419.612427 566.974609,407.303406 
	C559.402527,397.856812 551.697205,388.492401 544.128052,379.024933 
	C539.000305,372.611176 540.262817,369.937927 544.470581,365.612305 
	C548.710266,361.253876 556.071106,361.687775 560.072449,366.480469 
	C571.260315,379.881104 582.325317,393.388885 593.184570,407.056305 
	C595.886658,410.457123 598.887878,413.550507 601.885132,417.143677 
z"/>
<path fill="#000000" opacity="1.000000" stroke="none" 
	d="
M424.262512,489.710388 
	C415.754791,478.587921 406.951263,468.188690 397.830383,458.033142 
	C392.088989,451.640442 392.628204,444.239777 398.953613,437.455048 
	C410.876678,424.666199 421.860901,411.038269 432.395630,397.168915 
	C439.831635,387.379150 448.738190,378.801300 455.312439,368.315125 
	C458.657013,362.980347 464.607574,361.431427 469.768829,363.395416 
	C476.377594,365.910187 478.277252,371.932343 474.161224,377.768250 
	C468.224152,386.186035 461.740936,394.178070 455.174530,402.116150 
	C446.707977,412.351227 438.560120,422.849213 430.179993,433.156738 
	C427.141510,436.894012 423.837891,440.416412 420.639069,444.022522 
	C417.865265,447.149475 417.941772,450.066010 420.710693,453.306641 
	C429.115112,463.142914 437.403046,473.079712 445.657532,483.042694 
	C454.763641,494.033569 463.137054,505.629486 472.921173,516.060913 
	C475.212097,518.503418 476.154541,521.410156 476.096436,524.733521 
	C475.989777,530.835938 474.668549,532.547485 467.092529,534.569885 
	C462.864838,535.698425 459.104858,534.055542 456.659760,530.514343 
	C448.914124,519.296448 439.276672,509.582886 431.419189,498.457458 
	C429.319550,495.484558 426.825317,492.790344 424.262512,489.710388 
z"/>
<path fill="#000000" opacity="1.000000" stroke="none" 
	d="
M543.091919,479.737183 
	C546.578491,479.521637 548.019409,480.699371 548.233459,483.983154 
	C548.968628,495.262970 548.983154,495.329193 537.637207,495.319824 
	C534.460083,495.317200 531.321472,495.215057 528.261169,494.206848 
	C522.848938,492.423676 519.548584,488.788208 518.717529,483.145630 
	C518.258667,480.029999 517.943909,476.862823 517.929138,473.717194 
	C517.850342,456.893005 517.805298,440.067627 517.943970,423.244263 
	C517.976135,419.345154 516.588135,417.775238 512.702515,418.021423 
	C509.550598,418.221100 506.366180,418.201263 503.212708,418.008423 
	C499.338837,417.771545 497.794403,419.380157 497.926117,423.253082 
	C498.107178,428.577179 497.959747,433.912384 497.956696,439.242828 
	C497.947205,455.900726 497.861267,472.559204 497.984985,489.216125 
	C498.016510,493.457703 497.063843,495.583862 492.135712,495.408905 
	C477.568634,494.891815 479.872650,497.309570 479.771027,482.901764 
	C479.632355,463.246338 479.597839,443.587769 479.821899,423.933990 
	C479.874695,419.303131 478.395813,417.614075 473.838196,417.933838 
	C471.515045,418.096832 468.106598,419.121948 467.183258,416.179810 
	C466.055908,412.587677 466.248871,408.572266 467.229218,404.845154 
	C467.608734,403.402313 469.463318,403.666260 470.769409,403.664734 
	C491.092072,403.640808 511.415192,403.710785 531.737000,403.575836 
	C536.429993,403.544647 536.145508,406.519653 536.146362,409.584442 
	C536.152100,430.740021 536.250671,451.896393 536.083130,473.050629 
	C536.044739,477.904053 537.516846,480.388702 543.091919,479.737183 
z"/>
<path fill="#000000" opacity="1.000000" stroke="none" 
	d="
M297.860413,583.853577 
	C311.574219,573.137329 327.841461,572.103333 340.797241,580.897034 
	C357.370239,592.145935 358.014740,616.868225 341.919434,628.782959 
	C324.599915,641.603943 294.246704,635.691895 289.389008,610.679626 
	C287.400665,600.441589 290.645477,591.657654 297.860413,583.853577 
M335.128174,599.672607 
	C331.677032,591.664978 324.567993,588.154114 316.619598,590.531921 
	C309.486237,592.665955 305.328308,600.459167 307.040863,608.485168 
	C308.799774,616.728394 315.104218,621.480469 323.164215,620.638428 
	C332.373169,619.676331 337.071777,611.912842 335.128174,599.672607 
z"/>
<path fill="#000000" opacity="1.000000" stroke="none" 
	d="
M381.319824,590.192322 
	C375.231720,587.777527 378.293396,582.973694 378.153107,579.305115 
	C378.017914,575.768921 381.511078,576.229858 383.877197,576.181946 
	C393.202423,575.993164 402.532013,575.976624 411.839508,576.734680 
	C426.108337,577.896667 437.066925,588.885254 438.107666,603.024658 
	C439.193237,617.772339 429.979889,630.092346 415.169922,633.050049 
	C403.972717,635.286255 392.579559,633.882324 381.272980,634.050049 
	C378.671814,634.088684 377.882660,632.346436 377.881805,630.072937 
	C377.879150,623.076721 377.884125,616.080505 377.912720,609.084412 
	C377.915405,608.427490 377.868866,607.547424 378.245300,607.149292 
	C382.360870,602.796082 387.606415,605.422424 392.333588,605.142700 
	C395.742737,604.940979 395.263306,608.059570 395.323914,610.331421 
	C395.594421,620.465210 395.584167,620.465454 405.934235,619.943665 
	C414.892883,619.492004 420.559448,613.985901 420.651886,605.642883 
	C420.749237,596.855713 415.287231,590.793457 406.268677,590.393616 
	C398.121002,590.032410 389.947388,590.255798 381.319824,590.192322 
z"/>
<path fill="#000000" opacity="1.000000" stroke="none" 
	d="
M265.447266,619.492554 
	C270.614441,624.084900 270.568573,625.126404 265.296661,628.993286 
	C251.118011,639.393127 228.356613,636.727356 218.875412,623.307983 
	C211.347214,612.652893 210.594070,601.161011 217.131760,589.917358 
	C223.749512,578.536011 234.676773,574.542847 247.331802,575.147644 
	C254.805420,575.504822 261.646027,577.997009 267.339203,583.193665 
	C269.717438,585.364502 270.052582,587.228821 267.380951,589.290222 
	C266.458221,590.002136 265.417755,590.634277 264.693298,591.517944 
	C261.413025,595.519226 258.522675,595.881287 254.047958,592.426880 
	C247.949295,587.718750 238.642044,589.350586 234.092850,594.825256 
	C229.460480,600.400085 229.503632,610.343323 234.183472,615.684143 
	C239.050995,621.239197 248.154678,622.865356 254.084213,617.927124 
	C259.031586,613.806763 261.890564,615.494934 265.447266,619.492554 
z"/>
<path fill="#000000" opacity="1.000000" stroke="none" 
	d="
M571.947083,591.870239 
	C559.167664,586.616089 548.976013,592.862122 549.075134,605.487671 
	C549.120117,611.212646 550.985046,616.021057 556.275208,618.789185 
	C561.676575,621.615479 567.080139,621.459839 572.447449,618.314453 
	C574.365417,617.190491 575.933105,614.071472 578.293945,615.299744 
	C581.785645,617.116455 584.913269,619.837708 587.294739,623.041870 
	C588.789246,625.052551 586.574951,626.423706 585.275024,627.505554 
	C575.649963,635.515747 564.583374,637.165955 552.882812,633.766418 
	C537.162903,629.199158 528.669434,614.719910 531.901672,598.929321 
	C534.961487,583.980591 550.264526,573.267517 565.939331,575.102661 
	C573.359619,575.971375 580.222839,578.139465 585.868591,583.350952 
	C588.060364,585.374146 588.273743,587.149963 585.818481,589.061035 
	C584.902649,589.773926 583.978455,590.534241 583.261719,591.434998 
	C579.800293,595.785278 576.192017,596.467041 571.947083,591.870239 
z"/>
<path fill="#000000" opacity="1.000000" stroke="none" 
	d="
M730.967712,634.174438 
	C721.719299,633.996216 722.301025,635.819763 718.674744,626.345764 
	C715.107910,617.026978 711.254700,607.817383 707.485718,598.576782 
	C707.130615,597.706116 706.948792,596.606201 705.083984,596.047302 
	C702.227112,602.954651 699.327942,609.934570 696.455078,616.925232 
	C695.380493,619.540222 694.391357,622.190247 693.321838,624.807312 
	C689.449951,634.282043 685.709229,636.156494 675.426575,634.093750 
	C671.823608,633.371033 672.885803,631.335327 673.791260,629.295471 
	C679.394470,616.672913 685.021790,604.061035 690.651672,591.450378 
	C692.211792,587.955750 694.103333,584.575562 695.307068,580.964355 
	C696.602112,577.079163 699.098145,575.976990 702.867981,576.049805 
	C716.575195,576.314453 713.118835,574.441956 718.504150,586.035583 
	C725.021118,600.065613 731.165039,614.268860 737.467896,628.398254 
	C738.131531,629.885803 738.984802,631.331543 738.783936,633.052368 
	C736.417542,634.854126 733.832642,633.902283 730.967712,634.174438 
z"/>
<path fill="#000000" opacity="1.000000" stroke="none" 
	d="
M611.671570,621.981689 
	C611.671692,608.177979 611.800903,594.868408 611.597107,581.563904 
	C611.533386,577.407104 613.039551,576.025757 617.080017,576.032104 
	C631.535950,576.054932 628.903809,575.621643 629.069641,587.565735 
	C629.191956,596.380249 629.266602,605.203003 629.015442,614.012207 
	C628.888489,618.464539 630.259094,620.403137 634.952820,620.124207 
	C640.257019,619.808960 645.596252,620.140747 650.916809,620.026978 
	C654.630981,619.947632 656.593933,621.305908 656.232605,625.280884 
	C656.082581,626.931213 656.166748,628.605957 656.194702,630.268677 
	C656.240417,632.987915 654.876770,634.185059 652.216553,634.181580 
	C640.073608,634.165771 627.930542,634.153137 615.787781,634.198181 
	C612.839722,634.209106 611.543884,632.908386 611.663269,629.962463 
	C611.764221,627.471497 611.676392,624.972961 611.671570,621.981689 
z"/>
<path fill="#000000" opacity="1.000000" stroke="none" 
	d="
M796.622620,628.405823 
	C785.211853,614.736511 774.022644,601.349915 762.848572,587.950745 
	C761.685242,586.555725 760.483459,585.201416 760.119019,583.283264 
	C759.120605,578.029114 760.524902,576.498352 765.827209,576.003540 
	C771.661316,575.459106 775.561096,577.414307 779.350586,582.149109 
	C790.351807,595.894531 802.013977,609.111572 812.784790,623.055115 
	C813.787720,624.353333 814.884644,625.704102 815.421204,627.213989 
	C817.059509,631.824646 815.374207,633.957947 810.517395,634.274231 
	C804.987854,634.634216 799.830261,634.409302 796.622620,628.405823 
z"/>
<path fill="#000000" opacity="1.000000" stroke="none" 
	d="
M463.182373,577.593018 
	C464.856232,576.182617 466.530518,576.125305 468.189331,576.121277 
	C479.975891,576.092834 491.765137,576.229614 503.547913,576.010803 
	C508.431885,575.920166 509.443481,578.275208 509.180725,582.481689 
	C508.941193,586.315979 509.783386,590.296204 503.680847,590.172180 
	C492.231140,589.939453 480.772980,590.151306 469.318542,590.113037 
	C462.693268,590.090881 462.628784,589.987976 462.677185,583.441284 
	C462.690643,581.622314 462.855835,579.804504 463.182373,577.593018 
z"/>
<path fill="#000000" opacity="1.000000" stroke="none" 
	d="
M497.971313,611.342407 
	C487.491180,611.335144 477.504395,611.189941 467.524231,611.385010 
	C463.370941,611.466187 462.247253,609.570068 462.657013,605.923401 
	C463.026215,602.638184 461.000671,598.060364 467.211273,598.080322 
	C479.690796,598.120300 492.170593,598.058228 504.650299,598.043091 
	C510.362122,598.036133 508.947662,602.297424 509.126282,605.572937 
	C509.306335,608.874817 508.887848,611.680725 504.455841,611.350464 
	C502.470459,611.202576 500.464111,611.336060 497.971313,611.342407 
z"/>
<path fill="#000000" opacity="1.000000" stroke="none" 
	d="
M479.002869,620.647156 
	C487.799255,620.646179 496.100739,620.805115 504.391846,620.580872 
	C508.731293,620.463501 509.477966,622.795471 509.110535,626.209106 
	C508.758209,629.482361 510.692078,634.171997 504.581909,634.181885 
	C492.136292,634.202026 479.690155,634.139832 467.245209,634.236633 
	C463.851135,634.263000 462.308807,632.975708 462.638763,629.519836 
	C462.780090,628.039246 462.767670,626.528198 462.659943,625.042969 
	C462.426483,621.825500 463.890747,620.542175 467.054626,620.641113 
	C470.867340,620.760437 474.687012,620.655701 479.002869,620.647156 
z"/>
<path fill="#000000" opacity="1.000000" stroke="none" 
	d="
M798.703918,582.881836 
	C798.028442,577.680176 800.096313,575.935242 804.860413,575.980286 
	C817.542480,576.100220 815.805054,575.470825 815.880249,587.016846 
	C815.917114,592.674927 815.800232,598.334351 815.702026,603.992310 
	C815.694702,604.417847 815.278687,604.836243 814.629761,606.047302 
	C809.806396,601.580566 806.343201,596.366638 802.252014,591.741333 
	C800.110291,589.319946 798.198547,586.843811 798.703918,582.881836 
z"/>
<path fill="#000000" opacity="1.000000" stroke="none" 
	d="
M777.195190,628.145752 
	C777.738464,632.981445 775.702698,634.391174 771.435730,634.301880 
	C758.216187,634.025330 760.160034,635.509033 760.024536,622.836182 
	C759.960205,616.814392 760.013489,610.791321 760.920776,604.541931 
	C766.570801,612.380859 775.528198,617.479553 777.195190,628.145752 
z"/>
</svg>